<mxfile host="app.diagrams.net" modified="2020-10-20T10:44:58.180Z" agent="5.0 (Windows NT 10.0; Win64; x64) AppleWebKit/537.36 (KHTML, like Gecko) Chrome/86.0.4240.75 Safari/537.36" etag="tt4QP1jyhlc7znzMoOGX" version="13.8.0" type="github">
  <diagram id="EhOLiVQkgofEoMD7kFOs" name="Page-1">
    <mxGraphModel dx="2568" dy="583" grid="1" gridSize="10" guides="1" tooltips="1" connect="1" arrows="1" fold="1" page="1" pageScale="1" pageWidth="850" pageHeight="1100" math="0" shadow="0">
      <root>
        <mxCell id="0" />
        <mxCell id="1" parent="0" />
        <mxCell id="fGBqMCIeWZTtVR-pXMTN-44" value="Поставщик" style="shape=table;startSize=30;container=1;collapsible=1;childLayout=tableLayout;fixedRows=1;rowLines=0;fontStyle=1;align=center;resizeLast=1;" vertex="1" parent="1">
          <mxGeometry x="270" y="30" width="240" height="310" as="geometry" />
        </mxCell>
        <mxCell id="fGBqMCIeWZTtVR-pXMTN-45" value="" style="shape=partialRectangle;collapsible=0;dropTarget=0;pointerEvents=0;fillColor=none;top=0;left=0;bottom=1;right=0;points=[[0,0.5],[1,0.5]];portConstraint=eastwest;" vertex="1" parent="fGBqMCIeWZTtVR-pXMTN-44">
          <mxGeometry y="30" width="240" height="30" as="geometry" />
        </mxCell>
        <mxCell id="fGBqMCIeWZTtVR-pXMTN-46" value="PK" style="shape=partialRectangle;connectable=0;fillColor=none;top=0;left=0;bottom=0;right=0;fontStyle=1;overflow=hidden;" vertex="1" parent="fGBqMCIeWZTtVR-pXMTN-45">
          <mxGeometry width="30" height="30" as="geometry" />
        </mxCell>
        <mxCell id="fGBqMCIeWZTtVR-pXMTN-47" value="id" style="shape=partialRectangle;connectable=0;fillColor=none;top=0;left=0;bottom=0;right=0;align=left;spacingLeft=6;fontStyle=5;overflow=hidden;" vertex="1" parent="fGBqMCIeWZTtVR-pXMTN-45">
          <mxGeometry x="30" width="210" height="30" as="geometry" />
        </mxCell>
        <mxCell id="fGBqMCIeWZTtVR-pXMTN-48" value="" style="shape=partialRectangle;collapsible=0;dropTarget=0;pointerEvents=0;fillColor=none;top=0;left=0;bottom=0;right=0;points=[[0,0.5],[1,0.5]];portConstraint=eastwest;" vertex="1" parent="fGBqMCIeWZTtVR-pXMTN-44">
          <mxGeometry y="60" width="240" height="30" as="geometry" />
        </mxCell>
        <mxCell id="fGBqMCIeWZTtVR-pXMTN-49" value="" style="shape=partialRectangle;connectable=0;fillColor=none;top=0;left=0;bottom=0;right=0;editable=1;overflow=hidden;" vertex="1" parent="fGBqMCIeWZTtVR-pXMTN-48">
          <mxGeometry width="30" height="30" as="geometry" />
        </mxCell>
        <mxCell id="fGBqMCIeWZTtVR-pXMTN-50" value="Название_фирмы" style="shape=partialRectangle;connectable=0;fillColor=none;top=0;left=0;bottom=0;right=0;align=left;spacingLeft=6;overflow=hidden;" vertex="1" parent="fGBqMCIeWZTtVR-pXMTN-48">
          <mxGeometry x="30" width="210" height="30" as="geometry" />
        </mxCell>
        <mxCell id="fGBqMCIeWZTtVR-pXMTN-51" value="" style="shape=partialRectangle;collapsible=0;dropTarget=0;pointerEvents=0;fillColor=none;top=0;left=0;bottom=0;right=0;points=[[0,0.5],[1,0.5]];portConstraint=eastwest;" vertex="1" parent="fGBqMCIeWZTtVR-pXMTN-44">
          <mxGeometry y="90" width="240" height="30" as="geometry" />
        </mxCell>
        <mxCell id="fGBqMCIeWZTtVR-pXMTN-52" value="" style="shape=partialRectangle;connectable=0;fillColor=none;top=0;left=0;bottom=0;right=0;editable=1;overflow=hidden;" vertex="1" parent="fGBqMCIeWZTtVR-pXMTN-51">
          <mxGeometry width="30" height="30" as="geometry" />
        </mxCell>
        <mxCell id="fGBqMCIeWZTtVR-pXMTN-53" value="Среднее_время_доставки" style="shape=partialRectangle;connectable=0;fillColor=none;top=0;left=0;bottom=0;right=0;align=left;spacingLeft=6;overflow=hidden;" vertex="1" parent="fGBqMCIeWZTtVR-pXMTN-51">
          <mxGeometry x="30" width="210" height="30" as="geometry" />
        </mxCell>
        <mxCell id="fGBqMCIeWZTtVR-pXMTN-54" value="" style="shape=partialRectangle;collapsible=0;dropTarget=0;pointerEvents=0;fillColor=none;top=0;left=0;bottom=0;right=0;points=[[0,0.5],[1,0.5]];portConstraint=eastwest;" vertex="1" parent="fGBqMCIeWZTtVR-pXMTN-44">
          <mxGeometry y="120" width="240" height="30" as="geometry" />
        </mxCell>
        <mxCell id="fGBqMCIeWZTtVR-pXMTN-55" value="" style="shape=partialRectangle;connectable=0;fillColor=none;top=0;left=0;bottom=0;right=0;editable=1;overflow=hidden;" vertex="1" parent="fGBqMCIeWZTtVR-pXMTN-54">
          <mxGeometry width="30" height="30" as="geometry" />
        </mxCell>
        <mxCell id="fGBqMCIeWZTtVR-pXMTN-56" value="Имя_кл" style="shape=partialRectangle;connectable=0;fillColor=none;top=0;left=0;bottom=0;right=0;align=left;spacingLeft=6;overflow=hidden;" vertex="1" parent="fGBqMCIeWZTtVR-pXMTN-54">
          <mxGeometry x="30" width="210" height="30" as="geometry" />
        </mxCell>
        <mxCell id="fGBqMCIeWZTtVR-pXMTN-57" value="" style="shape=partialRectangle;collapsible=0;dropTarget=0;pointerEvents=0;fillColor=none;top=0;left=0;bottom=0;right=0;points=[[0,0.5],[1,0.5]];portConstraint=eastwest;" vertex="1" parent="fGBqMCIeWZTtVR-pXMTN-44">
          <mxGeometry y="150" width="240" height="30" as="geometry" />
        </mxCell>
        <mxCell id="fGBqMCIeWZTtVR-pXMTN-58" value="" style="shape=partialRectangle;connectable=0;fillColor=none;top=0;left=0;bottom=0;right=0;editable=1;overflow=hidden;" vertex="1" parent="fGBqMCIeWZTtVR-pXMTN-57">
          <mxGeometry width="30" height="30" as="geometry" />
        </mxCell>
        <mxCell id="fGBqMCIeWZTtVR-pXMTN-59" value="Фамилия_кл" style="shape=partialRectangle;connectable=0;fillColor=none;top=0;left=0;bottom=0;right=0;align=left;spacingLeft=6;overflow=hidden;" vertex="1" parent="fGBqMCIeWZTtVR-pXMTN-57">
          <mxGeometry x="30" width="210" height="30" as="geometry" />
        </mxCell>
        <mxCell id="fGBqMCIeWZTtVR-pXMTN-60" value="" style="shape=partialRectangle;collapsible=0;dropTarget=0;pointerEvents=0;fillColor=none;top=0;left=0;bottom=0;right=0;points=[[0,0.5],[1,0.5]];portConstraint=eastwest;" vertex="1" parent="fGBqMCIeWZTtVR-pXMTN-44">
          <mxGeometry y="180" width="240" height="30" as="geometry" />
        </mxCell>
        <mxCell id="fGBqMCIeWZTtVR-pXMTN-61" value="" style="shape=partialRectangle;connectable=0;fillColor=none;top=0;left=0;bottom=0;right=0;editable=1;overflow=hidden;" vertex="1" parent="fGBqMCIeWZTtVR-pXMTN-60">
          <mxGeometry width="30" height="30" as="geometry" />
        </mxCell>
        <mxCell id="fGBqMCIeWZTtVR-pXMTN-62" value="Отчество_кл" style="shape=partialRectangle;connectable=0;fillColor=none;top=0;left=0;bottom=0;right=0;align=left;spacingLeft=6;overflow=hidden;" vertex="1" parent="fGBqMCIeWZTtVR-pXMTN-60">
          <mxGeometry x="30" width="210" height="30" as="geometry" />
        </mxCell>
        <mxCell id="fGBqMCIeWZTtVR-pXMTN-63" value="" style="shape=partialRectangle;collapsible=0;dropTarget=0;pointerEvents=0;fillColor=none;top=0;left=0;bottom=0;right=0;points=[[0,0.5],[1,0.5]];portConstraint=eastwest;" vertex="1" parent="fGBqMCIeWZTtVR-pXMTN-44">
          <mxGeometry y="210" width="240" height="30" as="geometry" />
        </mxCell>
        <mxCell id="fGBqMCIeWZTtVR-pXMTN-64" value="" style="shape=partialRectangle;connectable=0;fillColor=none;top=0;left=0;bottom=0;right=0;editable=1;overflow=hidden;" vertex="1" parent="fGBqMCIeWZTtVR-pXMTN-63">
          <mxGeometry width="30" height="30" as="geometry" />
        </mxCell>
        <mxCell id="fGBqMCIeWZTtVR-pXMTN-65" value="email" style="shape=partialRectangle;connectable=0;fillColor=none;top=0;left=0;bottom=0;right=0;align=left;spacingLeft=6;overflow=hidden;" vertex="1" parent="fGBqMCIeWZTtVR-pXMTN-63">
          <mxGeometry x="30" width="210" height="30" as="geometry" />
        </mxCell>
        <mxCell id="fGBqMCIeWZTtVR-pXMTN-66" value="" style="shape=partialRectangle;collapsible=0;dropTarget=0;pointerEvents=0;fillColor=none;top=0;left=0;bottom=0;right=0;points=[[0,0.5],[1,0.5]];portConstraint=eastwest;" vertex="1" parent="fGBqMCIeWZTtVR-pXMTN-44">
          <mxGeometry y="240" width="240" height="30" as="geometry" />
        </mxCell>
        <mxCell id="fGBqMCIeWZTtVR-pXMTN-67" value="" style="shape=partialRectangle;connectable=0;fillColor=none;top=0;left=0;bottom=0;right=0;editable=1;overflow=hidden;" vertex="1" parent="fGBqMCIeWZTtVR-pXMTN-66">
          <mxGeometry width="30" height="30" as="geometry" />
        </mxCell>
        <mxCell id="fGBqMCIeWZTtVR-pXMTN-68" value="номер_телефона" style="shape=partialRectangle;connectable=0;fillColor=none;top=0;left=0;bottom=0;right=0;align=left;spacingLeft=6;overflow=hidden;" vertex="1" parent="fGBqMCIeWZTtVR-pXMTN-66">
          <mxGeometry x="30" width="210" height="30" as="geometry" />
        </mxCell>
        <mxCell id="fGBqMCIeWZTtVR-pXMTN-69" value="" style="shape=partialRectangle;collapsible=0;dropTarget=0;pointerEvents=0;fillColor=none;top=0;left=0;bottom=0;right=0;points=[[0,0.5],[1,0.5]];portConstraint=eastwest;" vertex="1" parent="fGBqMCIeWZTtVR-pXMTN-44">
          <mxGeometry y="270" width="240" height="30" as="geometry" />
        </mxCell>
        <mxCell id="fGBqMCIeWZTtVR-pXMTN-70" value="" style="shape=partialRectangle;connectable=0;fillColor=none;top=0;left=0;bottom=0;right=0;editable=1;overflow=hidden;" vertex="1" parent="fGBqMCIeWZTtVR-pXMTN-69">
          <mxGeometry width="30" height="30" as="geometry" />
        </mxCell>
        <mxCell id="fGBqMCIeWZTtVR-pXMTN-71" value="количество_бракованных_товаров" style="shape=partialRectangle;connectable=0;fillColor=none;top=0;left=0;bottom=0;right=0;align=left;spacingLeft=6;overflow=hidden;" vertex="1" parent="fGBqMCIeWZTtVR-pXMTN-69">
          <mxGeometry x="30" width="210" height="30" as="geometry" />
        </mxCell>
        <mxCell id="fGBqMCIeWZTtVR-pXMTN-72" value="Клиент" style="shape=table;startSize=30;container=1;collapsible=1;childLayout=tableLayout;fixedRows=1;rowLines=0;fontStyle=1;align=center;resizeLast=1;" vertex="1" parent="1">
          <mxGeometry x="-480" y="30" width="180" height="220" as="geometry" />
        </mxCell>
        <mxCell id="fGBqMCIeWZTtVR-pXMTN-73" value="" style="shape=partialRectangle;collapsible=0;dropTarget=0;pointerEvents=0;fillColor=none;top=0;left=0;bottom=1;right=0;points=[[0,0.5],[1,0.5]];portConstraint=eastwest;" vertex="1" parent="fGBqMCIeWZTtVR-pXMTN-72">
          <mxGeometry y="30" width="180" height="30" as="geometry" />
        </mxCell>
        <mxCell id="fGBqMCIeWZTtVR-pXMTN-74" value="PK" style="shape=partialRectangle;connectable=0;fillColor=none;top=0;left=0;bottom=0;right=0;fontStyle=1;overflow=hidden;" vertex="1" parent="fGBqMCIeWZTtVR-pXMTN-73">
          <mxGeometry width="30" height="30" as="geometry" />
        </mxCell>
        <mxCell id="fGBqMCIeWZTtVR-pXMTN-75" value="id" style="shape=partialRectangle;connectable=0;fillColor=none;top=0;left=0;bottom=0;right=0;align=left;spacingLeft=6;fontStyle=5;overflow=hidden;" vertex="1" parent="fGBqMCIeWZTtVR-pXMTN-73">
          <mxGeometry x="30" width="150" height="30" as="geometry" />
        </mxCell>
        <mxCell id="fGBqMCIeWZTtVR-pXMTN-76" value="" style="shape=partialRectangle;collapsible=0;dropTarget=0;pointerEvents=0;fillColor=none;top=0;left=0;bottom=0;right=0;points=[[0,0.5],[1,0.5]];portConstraint=eastwest;" vertex="1" parent="fGBqMCIeWZTtVR-pXMTN-72">
          <mxGeometry y="60" width="180" height="30" as="geometry" />
        </mxCell>
        <mxCell id="fGBqMCIeWZTtVR-pXMTN-77" value="" style="shape=partialRectangle;connectable=0;fillColor=none;top=0;left=0;bottom=0;right=0;editable=1;overflow=hidden;" vertex="1" parent="fGBqMCIeWZTtVR-pXMTN-76">
          <mxGeometry width="30" height="30" as="geometry" />
        </mxCell>
        <mxCell id="fGBqMCIeWZTtVR-pXMTN-78" value="Имя" style="shape=partialRectangle;connectable=0;fillColor=none;top=0;left=0;bottom=0;right=0;align=left;spacingLeft=6;overflow=hidden;" vertex="1" parent="fGBqMCIeWZTtVR-pXMTN-76">
          <mxGeometry x="30" width="150" height="30" as="geometry" />
        </mxCell>
        <mxCell id="fGBqMCIeWZTtVR-pXMTN-79" value="" style="shape=partialRectangle;collapsible=0;dropTarget=0;pointerEvents=0;fillColor=none;top=0;left=0;bottom=0;right=0;points=[[0,0.5],[1,0.5]];portConstraint=eastwest;" vertex="1" parent="fGBqMCIeWZTtVR-pXMTN-72">
          <mxGeometry y="90" width="180" height="30" as="geometry" />
        </mxCell>
        <mxCell id="fGBqMCIeWZTtVR-pXMTN-80" value="" style="shape=partialRectangle;connectable=0;fillColor=none;top=0;left=0;bottom=0;right=0;editable=1;overflow=hidden;" vertex="1" parent="fGBqMCIeWZTtVR-pXMTN-79">
          <mxGeometry width="30" height="30" as="geometry" />
        </mxCell>
        <mxCell id="fGBqMCIeWZTtVR-pXMTN-81" value="Фамилия" style="shape=partialRectangle;connectable=0;fillColor=none;top=0;left=0;bottom=0;right=0;align=left;spacingLeft=6;overflow=hidden;" vertex="1" parent="fGBqMCIeWZTtVR-pXMTN-79">
          <mxGeometry x="30" width="150" height="30" as="geometry" />
        </mxCell>
        <mxCell id="fGBqMCIeWZTtVR-pXMTN-82" value="" style="shape=partialRectangle;collapsible=0;dropTarget=0;pointerEvents=0;fillColor=none;top=0;left=0;bottom=0;right=0;points=[[0,0.5],[1,0.5]];portConstraint=eastwest;" vertex="1" parent="fGBqMCIeWZTtVR-pXMTN-72">
          <mxGeometry y="120" width="180" height="30" as="geometry" />
        </mxCell>
        <mxCell id="fGBqMCIeWZTtVR-pXMTN-83" value="" style="shape=partialRectangle;connectable=0;fillColor=none;top=0;left=0;bottom=0;right=0;editable=1;overflow=hidden;" vertex="1" parent="fGBqMCIeWZTtVR-pXMTN-82">
          <mxGeometry width="30" height="30" as="geometry" />
        </mxCell>
        <mxCell id="fGBqMCIeWZTtVR-pXMTN-84" value="Отчество" style="shape=partialRectangle;connectable=0;fillColor=none;top=0;left=0;bottom=0;right=0;align=left;spacingLeft=6;overflow=hidden;" vertex="1" parent="fGBqMCIeWZTtVR-pXMTN-82">
          <mxGeometry x="30" width="150" height="30" as="geometry" />
        </mxCell>
        <mxCell id="fGBqMCIeWZTtVR-pXMTN-85" value="" style="shape=partialRectangle;collapsible=0;dropTarget=0;pointerEvents=0;fillColor=none;top=0;left=0;bottom=0;right=0;points=[[0,0.5],[1,0.5]];portConstraint=eastwest;" vertex="1" parent="fGBqMCIeWZTtVR-pXMTN-72">
          <mxGeometry y="150" width="180" height="30" as="geometry" />
        </mxCell>
        <mxCell id="fGBqMCIeWZTtVR-pXMTN-86" value="" style="shape=partialRectangle;connectable=0;fillColor=none;top=0;left=0;bottom=0;right=0;editable=1;overflow=hidden;" vertex="1" parent="fGBqMCIeWZTtVR-pXMTN-85">
          <mxGeometry width="30" height="30" as="geometry" />
        </mxCell>
        <mxCell id="fGBqMCIeWZTtVR-pXMTN-87" value="Телефон" style="shape=partialRectangle;connectable=0;fillColor=none;top=0;left=0;bottom=0;right=0;align=left;spacingLeft=6;overflow=hidden;" vertex="1" parent="fGBqMCIeWZTtVR-pXMTN-85">
          <mxGeometry x="30" width="150" height="30" as="geometry" />
        </mxCell>
        <mxCell id="fGBqMCIeWZTtVR-pXMTN-88" value="" style="shape=partialRectangle;collapsible=0;dropTarget=0;pointerEvents=0;fillColor=none;top=0;left=0;bottom=0;right=0;points=[[0,0.5],[1,0.5]];portConstraint=eastwest;" vertex="1" parent="fGBqMCIeWZTtVR-pXMTN-72">
          <mxGeometry y="180" width="180" height="30" as="geometry" />
        </mxCell>
        <mxCell id="fGBqMCIeWZTtVR-pXMTN-89" value="" style="shape=partialRectangle;connectable=0;fillColor=none;top=0;left=0;bottom=0;right=0;editable=1;overflow=hidden;" vertex="1" parent="fGBqMCIeWZTtVR-pXMTN-88">
          <mxGeometry width="30" height="30" as="geometry" />
        </mxCell>
        <mxCell id="fGBqMCIeWZTtVR-pXMTN-90" value="Email" style="shape=partialRectangle;connectable=0;fillColor=none;top=0;left=0;bottom=0;right=0;align=left;spacingLeft=6;overflow=hidden;" vertex="1" parent="fGBqMCIeWZTtVR-pXMTN-88">
          <mxGeometry x="30" width="150" height="30" as="geometry" />
        </mxCell>
        <mxCell id="fGBqMCIeWZTtVR-pXMTN-1" value="Видео" style="shape=table;startSize=30;container=1;collapsible=1;childLayout=tableLayout;fixedRows=1;rowLines=0;fontStyle=1;align=center;resizeLast=1;" vertex="1" parent="1">
          <mxGeometry x="-130" y="30" width="200" height="450" as="geometry" />
        </mxCell>
        <mxCell id="fGBqMCIeWZTtVR-pXMTN-2" value="" style="shape=partialRectangle;collapsible=0;dropTarget=0;pointerEvents=0;fillColor=none;top=0;left=0;bottom=1;right=0;points=[[0,0.5],[1,0.5]];portConstraint=eastwest;" vertex="1" parent="fGBqMCIeWZTtVR-pXMTN-1">
          <mxGeometry y="30" width="200" height="30" as="geometry" />
        </mxCell>
        <mxCell id="fGBqMCIeWZTtVR-pXMTN-3" value="PK" style="shape=partialRectangle;connectable=0;fillColor=none;top=0;left=0;bottom=0;right=0;fontStyle=1;overflow=hidden;" vertex="1" parent="fGBqMCIeWZTtVR-pXMTN-2">
          <mxGeometry width="30" height="30" as="geometry" />
        </mxCell>
        <mxCell id="fGBqMCIeWZTtVR-pXMTN-4" value="id" style="shape=partialRectangle;connectable=0;fillColor=none;top=0;left=0;bottom=0;right=0;align=left;spacingLeft=6;fontStyle=5;overflow=hidden;" vertex="1" parent="fGBqMCIeWZTtVR-pXMTN-2">
          <mxGeometry x="30" width="170" height="30" as="geometry" />
        </mxCell>
        <mxCell id="fGBqMCIeWZTtVR-pXMTN-5" value="" style="shape=partialRectangle;collapsible=0;dropTarget=0;pointerEvents=0;fillColor=none;top=0;left=0;bottom=0;right=0;points=[[0,0.5],[1,0.5]];portConstraint=eastwest;" vertex="1" parent="fGBqMCIeWZTtVR-pXMTN-1">
          <mxGeometry y="60" width="200" height="30" as="geometry" />
        </mxCell>
        <mxCell id="fGBqMCIeWZTtVR-pXMTN-6" value="" style="shape=partialRectangle;connectable=0;fillColor=none;top=0;left=0;bottom=0;right=0;editable=1;overflow=hidden;" vertex="1" parent="fGBqMCIeWZTtVR-pXMTN-5">
          <mxGeometry width="30" height="30" as="geometry" />
        </mxCell>
        <mxCell id="fGBqMCIeWZTtVR-pXMTN-7" value="Название" style="shape=partialRectangle;connectable=0;fillColor=none;top=0;left=0;bottom=0;right=0;align=left;spacingLeft=6;overflow=hidden;" vertex="1" parent="fGBqMCIeWZTtVR-pXMTN-5">
          <mxGeometry x="30" width="170" height="30" as="geometry" />
        </mxCell>
        <mxCell id="fGBqMCIeWZTtVR-pXMTN-8" value="" style="shape=partialRectangle;collapsible=0;dropTarget=0;pointerEvents=0;fillColor=none;top=0;left=0;bottom=0;right=0;points=[[0,0.5],[1,0.5]];portConstraint=eastwest;" vertex="1" parent="fGBqMCIeWZTtVR-pXMTN-1">
          <mxGeometry y="90" width="200" height="30" as="geometry" />
        </mxCell>
        <mxCell id="fGBqMCIeWZTtVR-pXMTN-9" value="" style="shape=partialRectangle;connectable=0;fillColor=none;top=0;left=0;bottom=0;right=0;editable=1;overflow=hidden;" vertex="1" parent="fGBqMCIeWZTtVR-pXMTN-8">
          <mxGeometry width="30" height="30" as="geometry" />
        </mxCell>
        <mxCell id="fGBqMCIeWZTtVR-pXMTN-10" value="Тип" style="shape=partialRectangle;connectable=0;fillColor=none;top=0;left=0;bottom=0;right=0;align=left;spacingLeft=6;overflow=hidden;" vertex="1" parent="fGBqMCIeWZTtVR-pXMTN-8">
          <mxGeometry x="30" width="170" height="30" as="geometry" />
        </mxCell>
        <mxCell id="fGBqMCIeWZTtVR-pXMTN-11" value="" style="shape=partialRectangle;collapsible=0;dropTarget=0;pointerEvents=0;fillColor=none;top=0;left=0;bottom=0;right=0;points=[[0,0.5],[1,0.5]];portConstraint=eastwest;" vertex="1" parent="fGBqMCIeWZTtVR-pXMTN-1">
          <mxGeometry y="120" width="200" height="30" as="geometry" />
        </mxCell>
        <mxCell id="fGBqMCIeWZTtVR-pXMTN-12" value="" style="shape=partialRectangle;connectable=0;fillColor=none;top=0;left=0;bottom=0;right=0;editable=1;overflow=hidden;" vertex="1" parent="fGBqMCIeWZTtVR-pXMTN-11">
          <mxGeometry width="30" height="30" as="geometry" />
        </mxCell>
        <mxCell id="fGBqMCIeWZTtVR-pXMTN-13" value="Описание" style="shape=partialRectangle;connectable=0;fillColor=none;top=0;left=0;bottom=0;right=0;align=left;spacingLeft=6;overflow=hidden;" vertex="1" parent="fGBqMCIeWZTtVR-pXMTN-11">
          <mxGeometry x="30" width="170" height="30" as="geometry" />
        </mxCell>
        <mxCell id="fGBqMCIeWZTtVR-pXMTN-14" value="" style="shape=partialRectangle;collapsible=0;dropTarget=0;pointerEvents=0;fillColor=none;top=0;left=0;bottom=0;right=0;points=[[0,0.5],[1,0.5]];portConstraint=eastwest;" vertex="1" parent="fGBqMCIeWZTtVR-pXMTN-1">
          <mxGeometry y="150" width="200" height="30" as="geometry" />
        </mxCell>
        <mxCell id="fGBqMCIeWZTtVR-pXMTN-15" value="" style="shape=partialRectangle;connectable=0;fillColor=none;top=0;left=0;bottom=0;right=0;editable=1;overflow=hidden;" vertex="1" parent="fGBqMCIeWZTtVR-pXMTN-14">
          <mxGeometry width="30" height="30" as="geometry" />
        </mxCell>
        <mxCell id="fGBqMCIeWZTtVR-pXMTN-16" value="Возрастное_ограничение" style="shape=partialRectangle;connectable=0;fillColor=none;top=0;left=0;bottom=0;right=0;align=left;spacingLeft=6;overflow=hidden;" vertex="1" parent="fGBqMCIeWZTtVR-pXMTN-14">
          <mxGeometry x="30" width="170" height="30" as="geometry" />
        </mxCell>
        <mxCell id="fGBqMCIeWZTtVR-pXMTN-17" value="" style="shape=partialRectangle;collapsible=0;dropTarget=0;pointerEvents=0;fillColor=none;top=0;left=0;bottom=0;right=0;points=[[0,0.5],[1,0.5]];portConstraint=eastwest;" vertex="1" parent="fGBqMCIeWZTtVR-pXMTN-1">
          <mxGeometry y="180" width="200" height="30" as="geometry" />
        </mxCell>
        <mxCell id="fGBqMCIeWZTtVR-pXMTN-18" value="" style="shape=partialRectangle;connectable=0;fillColor=none;top=0;left=0;bottom=0;right=0;editable=1;overflow=hidden;" vertex="1" parent="fGBqMCIeWZTtVR-pXMTN-17">
          <mxGeometry width="30" height="30" as="geometry" />
        </mxCell>
        <mxCell id="fGBqMCIeWZTtVR-pXMTN-19" value="Количество_серий" style="shape=partialRectangle;connectable=0;fillColor=none;top=0;left=0;bottom=0;right=0;align=left;spacingLeft=6;overflow=hidden;" vertex="1" parent="fGBqMCIeWZTtVR-pXMTN-17">
          <mxGeometry x="30" width="170" height="30" as="geometry" />
        </mxCell>
        <mxCell id="fGBqMCIeWZTtVR-pXMTN-20" value="" style="shape=partialRectangle;collapsible=0;dropTarget=0;pointerEvents=0;fillColor=none;top=0;left=0;bottom=0;right=0;points=[[0,0.5],[1,0.5]];portConstraint=eastwest;" vertex="1" parent="fGBqMCIeWZTtVR-pXMTN-1">
          <mxGeometry y="210" width="200" height="30" as="geometry" />
        </mxCell>
        <mxCell id="fGBqMCIeWZTtVR-pXMTN-21" value="" style="shape=partialRectangle;connectable=0;fillColor=none;top=0;left=0;bottom=0;right=0;editable=1;overflow=hidden;" vertex="1" parent="fGBqMCIeWZTtVR-pXMTN-20">
          <mxGeometry width="30" height="30" as="geometry" />
        </mxCell>
        <mxCell id="fGBqMCIeWZTtVR-pXMTN-22" value="Место_съемки" style="shape=partialRectangle;connectable=0;fillColor=none;top=0;left=0;bottom=0;right=0;align=left;spacingLeft=6;overflow=hidden;" vertex="1" parent="fGBqMCIeWZTtVR-pXMTN-20">
          <mxGeometry x="30" width="170" height="30" as="geometry" />
        </mxCell>
        <mxCell id="fGBqMCIeWZTtVR-pXMTN-23" value="" style="shape=partialRectangle;collapsible=0;dropTarget=0;pointerEvents=0;fillColor=none;top=0;left=0;bottom=0;right=0;points=[[0,0.5],[1,0.5]];portConstraint=eastwest;" vertex="1" parent="fGBqMCIeWZTtVR-pXMTN-1">
          <mxGeometry y="240" width="200" height="30" as="geometry" />
        </mxCell>
        <mxCell id="fGBqMCIeWZTtVR-pXMTN-24" value="" style="shape=partialRectangle;connectable=0;fillColor=none;top=0;left=0;bottom=0;right=0;editable=1;overflow=hidden;" vertex="1" parent="fGBqMCIeWZTtVR-pXMTN-23">
          <mxGeometry width="30" height="30" as="geometry" />
        </mxCell>
        <mxCell id="fGBqMCIeWZTtVR-pXMTN-25" value="Продажи" style="shape=partialRectangle;connectable=0;fillColor=none;top=0;left=0;bottom=0;right=0;align=left;spacingLeft=6;overflow=hidden;" vertex="1" parent="fGBqMCIeWZTtVR-pXMTN-23">
          <mxGeometry x="30" width="170" height="30" as="geometry" />
        </mxCell>
        <mxCell id="fGBqMCIeWZTtVR-pXMTN-26" value="" style="shape=partialRectangle;collapsible=0;dropTarget=0;pointerEvents=0;fillColor=none;top=0;left=0;bottom=0;right=0;points=[[0,0.5],[1,0.5]];portConstraint=eastwest;" vertex="1" parent="fGBqMCIeWZTtVR-pXMTN-1">
          <mxGeometry y="270" width="200" height="30" as="geometry" />
        </mxCell>
        <mxCell id="fGBqMCIeWZTtVR-pXMTN-27" value="" style="shape=partialRectangle;connectable=0;fillColor=none;top=0;left=0;bottom=0;right=0;editable=1;overflow=hidden;" vertex="1" parent="fGBqMCIeWZTtVR-pXMTN-26">
          <mxGeometry width="30" height="30" as="geometry" />
        </mxCell>
        <mxCell id="fGBqMCIeWZTtVR-pXMTN-28" value="Длительность" style="shape=partialRectangle;connectable=0;fillColor=none;top=0;left=0;bottom=0;right=0;align=left;spacingLeft=6;overflow=hidden;" vertex="1" parent="fGBqMCIeWZTtVR-pXMTN-26">
          <mxGeometry x="30" width="170" height="30" as="geometry" />
        </mxCell>
        <mxCell id="fGBqMCIeWZTtVR-pXMTN-29" value="" style="shape=partialRectangle;collapsible=0;dropTarget=0;pointerEvents=0;fillColor=none;top=0;left=0;bottom=0;right=0;points=[[0,0.5],[1,0.5]];portConstraint=eastwest;" vertex="1" parent="fGBqMCIeWZTtVR-pXMTN-1">
          <mxGeometry y="300" width="200" height="30" as="geometry" />
        </mxCell>
        <mxCell id="fGBqMCIeWZTtVR-pXMTN-30" value="" style="shape=partialRectangle;connectable=0;fillColor=none;top=0;left=0;bottom=0;right=0;editable=1;overflow=hidden;" vertex="1" parent="fGBqMCIeWZTtVR-pXMTN-29">
          <mxGeometry width="30" height="30" as="geometry" />
        </mxCell>
        <mxCell id="fGBqMCIeWZTtVR-pXMTN-31" value="Год_выпуска" style="shape=partialRectangle;connectable=0;fillColor=none;top=0;left=0;bottom=0;right=0;align=left;spacingLeft=6;overflow=hidden;" vertex="1" parent="fGBqMCIeWZTtVR-pXMTN-29">
          <mxGeometry x="30" width="170" height="30" as="geometry" />
        </mxCell>
        <mxCell id="fGBqMCIeWZTtVR-pXMTN-32" value="" style="shape=partialRectangle;collapsible=0;dropTarget=0;pointerEvents=0;fillColor=none;top=0;left=0;bottom=0;right=0;points=[[0,0.5],[1,0.5]];portConstraint=eastwest;" vertex="1" parent="fGBqMCIeWZTtVR-pXMTN-1">
          <mxGeometry y="330" width="200" height="30" as="geometry" />
        </mxCell>
        <mxCell id="fGBqMCIeWZTtVR-pXMTN-33" value="" style="shape=partialRectangle;connectable=0;fillColor=none;top=0;left=0;bottom=0;right=0;editable=1;overflow=hidden;" vertex="1" parent="fGBqMCIeWZTtVR-pXMTN-32">
          <mxGeometry width="30" height="30" as="geometry" />
        </mxCell>
        <mxCell id="fGBqMCIeWZTtVR-pXMTN-34" value="Бюджет" style="shape=partialRectangle;connectable=0;fillColor=none;top=0;left=0;bottom=0;right=0;align=left;spacingLeft=6;overflow=hidden;" vertex="1" parent="fGBqMCIeWZTtVR-pXMTN-32">
          <mxGeometry x="30" width="170" height="30" as="geometry" />
        </mxCell>
        <mxCell id="fGBqMCIeWZTtVR-pXMTN-35" value="" style="shape=partialRectangle;collapsible=0;dropTarget=0;pointerEvents=0;fillColor=none;top=0;left=0;bottom=0;right=0;points=[[0,0.5],[1,0.5]];portConstraint=eastwest;" vertex="1" parent="fGBqMCIeWZTtVR-pXMTN-1">
          <mxGeometry y="360" width="200" height="30" as="geometry" />
        </mxCell>
        <mxCell id="fGBqMCIeWZTtVR-pXMTN-36" value="" style="shape=partialRectangle;connectable=0;fillColor=none;top=0;left=0;bottom=0;right=0;editable=1;overflow=hidden;" vertex="1" parent="fGBqMCIeWZTtVR-pXMTN-35">
          <mxGeometry width="30" height="30" as="geometry" />
        </mxCell>
        <mxCell id="fGBqMCIeWZTtVR-pXMTN-37" value="Старана_производства" style="shape=partialRectangle;connectable=0;fillColor=none;top=0;left=0;bottom=0;right=0;align=left;spacingLeft=6;overflow=hidden;" vertex="1" parent="fGBqMCIeWZTtVR-pXMTN-35">
          <mxGeometry x="30" width="170" height="30" as="geometry" />
        </mxCell>
        <mxCell id="fGBqMCIeWZTtVR-pXMTN-38" value="" style="shape=partialRectangle;collapsible=0;dropTarget=0;pointerEvents=0;fillColor=none;top=0;left=0;bottom=0;right=0;points=[[0,0.5],[1,0.5]];portConstraint=eastwest;" vertex="1" parent="fGBqMCIeWZTtVR-pXMTN-1">
          <mxGeometry y="390" width="200" height="30" as="geometry" />
        </mxCell>
        <mxCell id="fGBqMCIeWZTtVR-pXMTN-39" value="" style="shape=partialRectangle;connectable=0;fillColor=none;top=0;left=0;bottom=0;right=0;editable=1;overflow=hidden;" vertex="1" parent="fGBqMCIeWZTtVR-pXMTN-38">
          <mxGeometry width="30" height="30" as="geometry" />
        </mxCell>
        <mxCell id="fGBqMCIeWZTtVR-pXMTN-40" value="Количество" style="shape=partialRectangle;connectable=0;fillColor=none;top=0;left=0;bottom=0;right=0;align=left;spacingLeft=6;overflow=hidden;" vertex="1" parent="fGBqMCIeWZTtVR-pXMTN-38">
          <mxGeometry x="30" width="170" height="30" as="geometry" />
        </mxCell>
        <mxCell id="fGBqMCIeWZTtVR-pXMTN-41" value="" style="shape=partialRectangle;collapsible=0;dropTarget=0;pointerEvents=0;fillColor=none;top=0;left=0;bottom=0;right=0;points=[[0,0.5],[1,0.5]];portConstraint=eastwest;" vertex="1" parent="fGBqMCIeWZTtVR-pXMTN-1">
          <mxGeometry y="420" width="200" height="30" as="geometry" />
        </mxCell>
        <mxCell id="fGBqMCIeWZTtVR-pXMTN-42" value="" style="shape=partialRectangle;connectable=0;fillColor=none;top=0;left=0;bottom=0;right=0;editable=1;overflow=hidden;" vertex="1" parent="fGBqMCIeWZTtVR-pXMTN-41">
          <mxGeometry width="30" height="30" as="geometry" />
        </mxCell>
        <mxCell id="fGBqMCIeWZTtVR-pXMTN-43" value="Цена" style="shape=partialRectangle;connectable=0;fillColor=none;top=0;left=0;bottom=0;right=0;align=left;spacingLeft=6;overflow=hidden;" vertex="1" parent="fGBqMCIeWZTtVR-pXMTN-41">
          <mxGeometry x="30" width="170" height="30" as="geometry" />
        </mxCell>
        <mxCell id="fGBqMCIeWZTtVR-pXMTN-91" value="" style="endArrow=none;html=1;rounded=0;entryX=0;entryY=0.5;entryDx=0;entryDy=0;exitX=1;exitY=0.5;exitDx=0;exitDy=0;" edge="1" parent="1" source="fGBqMCIeWZTtVR-pXMTN-2" target="fGBqMCIeWZTtVR-pXMTN-45">
          <mxGeometry relative="1" as="geometry">
            <mxPoint x="-90" y="70" as="sourcePoint" />
            <mxPoint x="70" y="70" as="targetPoint" />
          </mxGeometry>
        </mxCell>
        <mxCell id="fGBqMCIeWZTtVR-pXMTN-92" value="M" style="resizable=0;html=1;align=left;verticalAlign=bottom;" connectable="0" vertex="1" parent="fGBqMCIeWZTtVR-pXMTN-91">
          <mxGeometry x="-1" relative="1" as="geometry" />
        </mxCell>
        <mxCell id="fGBqMCIeWZTtVR-pXMTN-93" value="N" style="resizable=0;html=1;align=right;verticalAlign=bottom;" connectable="0" vertex="1" parent="fGBqMCIeWZTtVR-pXMTN-91">
          <mxGeometry x="1" relative="1" as="geometry" />
        </mxCell>
        <mxCell id="fGBqMCIeWZTtVR-pXMTN-94" value="" style="endArrow=none;html=1;rounded=0;entryX=0;entryY=0.5;entryDx=0;entryDy=0;exitX=1;exitY=0.5;exitDx=0;exitDy=0;" edge="1" parent="1" source="fGBqMCIeWZTtVR-pXMTN-73" target="fGBqMCIeWZTtVR-pXMTN-2">
          <mxGeometry relative="1" as="geometry">
            <mxPoint x="-310" y="85" as="sourcePoint" />
            <mxPoint x="-110" y="85" as="targetPoint" />
          </mxGeometry>
        </mxCell>
        <mxCell id="fGBqMCIeWZTtVR-pXMTN-95" value="M" style="resizable=0;html=1;align=left;verticalAlign=bottom;" connectable="0" vertex="1" parent="fGBqMCIeWZTtVR-pXMTN-94">
          <mxGeometry x="-1" relative="1" as="geometry" />
        </mxCell>
        <mxCell id="fGBqMCIeWZTtVR-pXMTN-96" value="N" style="resizable=0;html=1;align=right;verticalAlign=bottom;" connectable="0" vertex="1" parent="fGBqMCIeWZTtVR-pXMTN-94">
          <mxGeometry x="1" relative="1" as="geometry" />
        </mxCell>
        <mxCell id="fGBqMCIeWZTtVR-pXMTN-97" value="" style="endArrow=classic;html=1;" edge="1" parent="1">
          <mxGeometry width="50" height="50" relative="1" as="geometry">
            <mxPoint x="-170" y="60" as="sourcePoint" />
            <mxPoint x="-270" y="60" as="targetPoint" />
          </mxGeometry>
        </mxCell>
        <mxCell id="fGBqMCIeWZTtVR-pXMTN-98" value="Продаются" style="text;html=1;align=center;verticalAlign=middle;resizable=0;points=[];autosize=1;" vertex="1" parent="1">
          <mxGeometry x="-260" y="40" width="80" height="20" as="geometry" />
        </mxCell>
        <mxCell id="fGBqMCIeWZTtVR-pXMTN-99" value="" style="endArrow=classic;html=1;" edge="1" parent="1">
          <mxGeometry width="50" height="50" relative="1" as="geometry">
            <mxPoint x="110" y="60" as="sourcePoint" />
            <mxPoint x="110" y="60" as="targetPoint" />
            <Array as="points">
              <mxPoint x="220" y="60" />
            </Array>
          </mxGeometry>
        </mxCell>
        <mxCell id="fGBqMCIeWZTtVR-pXMTN-100" value="Поставляет" style="text;html=1;align=center;verticalAlign=middle;resizable=0;points=[];autosize=1;" vertex="1" parent="1">
          <mxGeometry x="130" y="40" width="80" height="20" as="geometry" />
        </mxCell>
      </root>
    </mxGraphModel>
  </diagram>
</mxfile>
